<svg xmlns="http://www.w3.org/2000/svg" width="40" height="40"><g fill="none" fill-rule="evenodd"><path fill="#FFF" fill-opacity=".01" d="M0 0h40v40H0z"/><path d="M1 4h37.948v31.126H1z"/><path fill="#231F20" fill-rule="nonzero" d="M10.397 31.21v-1.55a.92.92 0 0 0-.972-.982.96.96 0 0 0-.869.44.91.91 0 0 0-.817-.44.82.82 0 0 0-.724.367v-.305h-.537v2.471h.543v-1.36a.58.58 0 0 1 .604-.656c.357 0 .538.232.538.651v1.375h.543v-1.37a.582.582 0 0 1 .605-.656c.367 0 .543.232.543.651v1.375l.543-.01zm8.031-2.471h-.884v-.75h-.543v.75h-.49v.49h.5v1.138c0 .574.223.915.859.915.238.001.47-.065.672-.19l-.155-.461a1 1 0 0 1-.476.14c-.258 0-.356-.166-.356-.414V29.23h.878zm4.586-.062a.73.73 0 0 0-.651.362v-.3h-.533v2.471h.538v-1.386c0-.408.176-.635.517-.635.115-.002.23.02.336.062l.165-.517a1.2 1.2 0 0 0-.382-.068l.01.01zm-6.933.258a1.85 1.85 0 0 0-1.008-.258c-.626 0-1.034.3-1.034.79 0 .404.3.652.853.73l.258.036c.295.041.435.119.435.258 0 .192-.197.3-.564.3a1.3 1.3 0 0 1-.822-.258l-.258.419c.313.218.688.33 1.07.32.713 0 1.127-.336 1.127-.806s-.326-.662-.863-.74l-.259-.036c-.233-.031-.419-.077-.419-.243s.176-.29.47-.29a1.6 1.6 0 0 1 .776.213zm14.401-.258a.73.73 0 0 0-.651.362v-.3h-.533v2.471h.538v-1.386c0-.408.176-.635.517-.635.115-.002.23.02.336.062l.166-.517a1.2 1.2 0 0 0-.383-.068l.01.01zm-6.928 1.292a1.25 1.25 0 0 0 1.319 1.293c.323.016.64-.089.889-.295l-.258-.434c-.186.142-.413.22-.647.222a.794.794 0 0 1 0-1.582c.234.003.46.08.647.222l.258-.434a1.3 1.3 0 0 0-.89-.295 1.25 1.25 0 0 0-1.318 1.293zm5.036 0v-1.23h-.538v.3a.94.94 0 0 0-.775-.362 1.293 1.293 0 0 0 0 2.585.94.94 0 0 0 .775-.362v.3h.538v-1.23zm-2 0a.747.747 0 1 1 1.49.088.747.747 0 0 1-1.49-.088m-6.49-1.292a1.293 1.293 0 1 0 .037 2.585c.372.019.738-.1 1.026-.336l-.258-.398a1.18 1.18 0 0 1-.719.258.685.685 0 0 1-.74-.605h1.836v-.207c0-.775-.48-1.292-1.173-1.292l-.008-.005zm0 .48a.613.613 0 0 1 .626.6h-1.292a.636.636 0 0 1 .656-.6zm13.471.817v-2.228h-.517v1.293a.94.94 0 0 0-.775-.362 1.293 1.293 0 1 0 0 2.585.94.94 0 0 0 .775-.362v.3h.517zm.897.877a.26.26 0 0 1 .179.07.24.24 0 0 1-.08.398.24.24 0 0 1-.099.02c-.1 0-.19-.059-.232-.15a.24.24 0 0 1 .054-.268.26.26 0 0 1 .186-.07zm0 .437a.18.18 0 0 0 .135-.057.19.19 0 0 0 0-.259.2.2 0 0 0-.135-.057.2.2 0 0 0-.137.057.19.19 0 0 0 0 .259.2.2 0 0 0 .062.041.2.2 0 0 0 .083.016zm.016-.308a.1.1 0 0 1 .067.02.07.07 0 0 1 .023.055.06.06 0 0 1-.018.046.1.1 0 0 1-.054.024l.075.085h-.06l-.07-.085h-.023v.085h-.049v-.227zm-.057.044v.062h.057q.015.005.031 0a.03.03 0 0 0 0-.023.03.03 0 0 0 0-.024.05.05 0 0 0-.031 0zm-2.843-1.05a.747.747 0 1 1 1.491.088.747.747 0 0 1-1.491-.088m-18.155 0V28.74h-.538v.3a.94.94 0 0 0-.775-.362 1.293 1.293 0 1 0 0 2.585.94.94 0 0 0 .775-.362v.3h.538v-1.226zm-2.001 0a.747.747 0 1 1 .75.791.74.74 0 0 1-.755-.79h.005z"/><g fill-rule="nonzero"><path fill="#FF5F00" d="M15.903 9.907h8.143V24.54h-8.143z"/><path fill="#EB001B" d="M16.42 17.225a9.29 9.29 0 0 1 3.554-7.318 9.306 9.306 0 1 0 0 14.634 9.29 9.29 0 0 1-3.554-7.316"/><path fill="#F79E1B" d="M35.032 17.225a9.306 9.306 0 0 1-15.058 7.316 9.306 9.306 0 0 0 0-14.634 9.306 9.306 0 0 1 15.058 7.315zm-.889 5.899v-.411h.121v-.085h-.307v.085h.131v.411zm.597 0v-.496h-.093l-.109.354-.108-.354h-.083v.496h.067v-.372l.101.323h.07l.1-.323v.376z"/></g></g></svg>