<svg xmlns="http://www.w3.org/2000/svg" width="40" height="40"><defs><linearGradient id="a" x1="0%" y1="50%" y2="50%"><stop offset="0%" stop-color="#1F1F46"/><stop offset="100%" stop-color="#194788"/></linearGradient></defs><g fill="none" fill-rule="evenodd"><path fill="#FFF" fill-opacity=".01" d="M0 0h40v40H0z"/><path fill="url(#a)" d="M20.652 17.923c-.02 1.71 1.524 2.663 2.688 3.231 1.196.582 1.597.955 1.593 1.475-.01.797-.955 1.148-1.838 1.162-1.544.024-2.44-.417-3.154-.75l-.556 2.6c.717.33 2.042.617 3.415.632 3.226 0 5.335-1.593 5.346-4.062.013-3.132-4.332-3.305-4.302-4.705.01-.425.415-.878 1.302-.994.44-.057 1.653-.102 3.027.531l.54-2.517A8.3 8.3 0 0 0 25.84 14c-3.035 0-5.171 1.613-5.188 3.923M33.9 14.217a1.4 1.4 0 0 0-1.308.87l-4.607 11h3.224l.64-1.774h3.94l.37 1.774H39l-2.479-11.87zm.45 3.207.93 4.457h-2.547zm-17.606-3.207-2.54 11.87h3.07l2.54-11.87zm-4.543 0-3.196 8.079-1.292-6.87c-.152-.766-.751-1.209-1.417-1.209H1.072L1 14.561c1.072.234 2.291.61 3.03 1.01.451.246.58.46.729 1.043l2.448 9.473h3.245l4.975-11.87z"/></g></svg>